<?xml version="1.0" encoding="utf-8"?>
<!-- Generator: Adobe Illustrator 24.0.1, SVG Export Plug-In . SVG Version: 6.00 Build 0)  -->
<svg version="1.1" id="Calque_1" xmlns="http://www.w3.org/2000/svg" xmlns:xlink="http://www.w3.org/1999/xlink" x="0px" y="0px"
	 viewBox="0 0 32 32" style="enable-background:new 0 0 32 32;" xml:space="preserve">
<style type="text/css">
	.st0{fill-rule:evenodd;clip-rule:evenodd;fill:#E8E6E3;}
</style>
<path class="st0" d="M16,4C9.4,4,4,9.4,4,16c0,5.3,3.4,9.8,8.2,11.4c0.6,0.1,0.8-0.3,0.8-0.6c0-0.3,0-1,0-2c-3.3,0.7-4-1.6-4-1.6
	c-0.5-1.4-1.3-1.8-1.3-1.8c-1.1-0.7,0.1-0.7,0.1-0.7c1.2,0.1,1.8,1.2,1.8,1.2c1.1,1.8,2.8,1.3,3.5,1c0.1-0.8,0.4-1.3,0.8-1.6
	C11.1,21,8.3,20,8.3,15.4c0-1.3,0.5-2.4,1.2-3.2C9.5,11.9,9,10.6,9.7,9c0,0,1-0.3,3.3,1.2c1-0.3,2-0.4,3-0.4c1,0,2,0.1,3,0.4
	C21.3,8.7,22.3,9,22.3,9c0.7,1.7,0.2,2.9,0.1,3.2c0.8,0.8,1.2,1.9,1.2,3.2c0,4.6-2.8,5.6-5.5,5.9c0.4,0.4,0.8,1.1,0.8,2.2
	c0,1.6,0,2.9,0,3.3c0,0.3,0.2,0.7,0.8,0.6C24.6,25.8,28,21.3,28,16C28,9.4,22.6,4,16,4z"/>
</svg>
