<?xml version="1.0" encoding="utf-8"?>
<!-- Generator: Adobe Illustrator 24.0.1, SVG Export Plug-In . SVG Version: 6.00 Build 0)  -->
<svg version="1.1" id="Calque_1" xmlns="http://www.w3.org/2000/svg" xmlns:xlink="http://www.w3.org/1999/xlink" x="0px" y="0px"
	 viewBox="0 0 32 32" style="enable-background:new 0 0 32 32;" xml:space="preserve">
<style type="text/css">
	.st0{fill:#E8E6E3;}
</style>
<path class="st0" d="M8.6,4C7.2,4,6,5.2,6,6.6s1.2,2.7,2.6,2.7s2.6-1.2,2.6-2.7C11.3,5.2,10.1,4,8.6,4z M21.5,11
	c-2.2,0-3.5,1.2-4.1,2.3h-0.1v-2H13V26h4.6v-7.3c0-1.9,0.1-3.8,2.5-3.8c2.3,0,2.4,2.2,2.4,3.9V26H27h0v-8.1C27,14,26.2,11,21.5,11z
	 M6.4,11.3V26h4.6V11.3H6.4z"/>
</svg>
